<svg xmlns="http://www.w3.org/2000/svg" version="1.1" xmlns:xlink="http://www.w3.org/1999/xlink" xmlns:svgjs="http://svgjs.dev/svgjs" width="850" height="570"><svg version="1.1" xmlns="http://www.w3.org/2000/svg" xmlns:xlink="http://www.w3.org/1999/xlink" x="0px" y="0px" viewBox="0 0 850 570" style="enable-background:new 0 0 850 570;" xml:space="preserve">
<style type="text/css">
	.st0{fill:#0097D7;}
	.st1{fill:#EDBE38;}
</style>
<path class="st1" d="M241.30 379.74L196.42 379.74L196.42 440.77L242.74 440.77L242.74 429.97L208.91 429.97L208.91 414.16L238.66 414.16L238.66 403.37L208.91 403.37L208.91 390.53L241.30 390.53ZM279.04 424.28C279.04 426.40 277.00 432.19 270.96 432.19C261.95 432.19 261.78 422.41 261.78 417.48C261.78 411.87 263.74 404.39 271.22 404.39C276.74 404.05 278.61 408.72 279.12 411.70L291.19 411.70C290.09 397.59 278.36 394.36 271.22 394.36C255.92 394.36 249.54 404.81 249.54 419.44C249.54 428.95 253.45 441.96 270.45 441.96C287.03 441.96 290.68 428.95 291.11 424.28ZM340.24 395.55L328.34 395.55L328.34 421.64C328.34 429.72 323.07 431.93 319.16 431.93C315.50 431.93 311.42 430.57 311.42 423.60L311.42 395.55L299.52 395.55L299.52 425.30C299.52 436.86 305.98 441.96 314.91 441.96C321.20 441.96 325.96 439.24 328.68 434.39L328.85 434.39L328.85 440.77L340.24 440.77ZM388.01 407.45C388.01 396.31 376.36 394.36 369.99 394.36C360.72 394.36 351.12 396.31 349.76 410.17L361.23 410.17C361.57 407.53 362.59 403.88 368.54 403.88C371.60 403.88 376.36 404.13 376.36 409.15C376.36 411.70 374.07 412.46 372.20 412.72L361.49 414.33C353.92 415.44 348.31 419.94 348.31 428.78C348.31 438.13 355.28 441.96 362.08 441.96C370.16 441.96 373.98 438.22 376.70 435.41C376.96 437.96 377.13 438.64 377.81 440.77L390.64 440.77L390.64 438.98C389.20 438.47 388.01 437.28 388.01 431.93ZM376.36 424.53C376.36 430.06 371.01 433.46 365.74 433.46C363.44 433.46 360.21 432.19 360.21 428.02C360.21 423.09 363.87 421.98 368.29 421.22C373.22 420.45 375.17 419.69 376.36 418.75ZM439.94 379.74L428.04 379.74L428.04 401.41L427.87 401.41C426.00 398.52 422.43 394.36 414.78 394.36C404.84 394.36 396.00 402.01 396.00 417.65C396.00 430.06 401.61 441.96 415.04 441.96C419.97 441.96 425.24 440.17 428.13 435.07L428.30 435.07L428.30 440.77L439.94 440.77ZM408.24 418.50C408.24 411.36 410.79 404.64 418.35 404.64C426.51 404.64 428.55 411.95 428.55 419.18C428.55 425.89 425.58 432.19 418.01 432.19C410.36 432.19 408.24 423.85 408.24 418.50ZM494.17 418.16C494.17 401.84 483.21 394.36 471.05 394.36C458.90 394.36 447.93 401.84 447.93 418.16C447.93 434.48 458.90 441.96 471.05 441.96C483.21 441.96 494.17 434.48 494.17 418.16ZM481.93 418.16C481.93 423.94 480.23 431.93 471.05 431.93C461.87 431.93 460.17 423.94 460.17 418.16C460.17 412.38 461.87 404.39 471.05 404.39C480.23 404.39 481.93 412.38 481.93 418.16ZM502.42 440.77L514.32 440.77L514.32 417.22C514.32 412.21 516.02 406.43 525.28 406.43C526.39 406.43 527.66 406.43 528.68 406.60L528.68 394.53C527.92 394.44 527.15 394.36 526.39 394.36C519.16 394.36 516.44 398.78 513.98 403.37L513.81 403.37L513.81 395.55L502.42 395.55Z"></path>

<g class="jci">
<path class="st0" d="M130.6,275.1c-1.4,10.2-5,16.6-16.3,16.6c-8.5,0-13.8-5.5-14.2-14.3c-0.3-7.5,2.6-20.3,3.4-27.9H47.1c-2.6,11.5-3.8,27.5-3.2,37.3c1.5,25.8,18.8,53.7,70.4,53.7c50.1,0,74.5-23.2,80.5-70.3l21.8-139.4h-63.1L130.6,275.1z"></path>
<path class="st0" d="M331.4,176.1c19.6,0,29.4,10.9,29.9,30.2h60c-4.5-61.7-46.6-81.6-92.4-81.6c-70,0-108.6,55.4-104.9,122c3.1,55.1,34,93.8,93.7,93.8c85.7,0,98.4-62.1,101.1-83.1l0,0h-62.4c-3,18.2-13.5,31.7-33.4,31.7c-29.2,0-34.7-26.5-35.6-43.5C285.7,216.5,296.1,176.1,331.4,176.1z"></path>
<polygon class="st0" points="434.9,334.9 497.8,334.9 529,130.8 466.2,130.8 "></polygon>
<path class="st0" d="M768.1,151.8c-44.3,0-43.3-45.5-43.3-45.5h-52.5h-0.9h-52.5c0,0,0.9,45.5-43.3,45.5c-1.5,0-21.6,101.1,95.8,210.6h0.9C789.7,252.9,769.7,151.8,768.1,151.8z M671.6,327.1h-0.2c-77.2-77.1-74-156.4-71.7-157.2c38.2-12.7,38.5-40.1,38.5-40.1h33.2h0.2h33.2c0,0,0.3,27.4,38.5,40.1C745.6,170.7,748.7,250,671.6,327.1z"></path>
<polygon class="st0" points="803.1,314.9 797.1,332.8 791,314.9 787.1,314.9 786.9,314.9 786.9,335.6 790,335.6 790,320 795.6,335.5 798.5,335.5 804.1,319.5 804.1,335.6 807.2,335.6 807.2,314.8"></polygon>
<polygon class="st0" points="768.1,317.4 774.6,317.4 774.6,335.7 777.6,335.7 777.6,317.4 783.6,317.4 783.6,314.9 768.1,314.9 "></polygon>
<path class="st0" d="M668.5,201.6c-0.7-0.2-0.6,0.3-1.2,0.3c-0.9,0.2-0.2-0.6-0.4-0.9c-0.2-0.1-0.6,0.6-0.7,1c0,0.3,0,0.9,0.3,1l2.8,0.3C669.8,203.4,669.2,201.8,668.5,201.6z"></path>
<path class="st0" d="M666.7,200.5c0.4,0,0.4-0.3,0.6-0.3c0.2,0,0,0.3,0.4,0.3s0.9-1-0.4-1C666.3,199.4,666.4,200.5,666.7,200.5z"></path>
<path class="st0" d="M658.7,210c0.1,0.5,0.4,0.9,0.7,1.2c0.3,0,0.4-0.9,0.3-1.3S658.7,209.7,658.7,210z"></path>
<path class="st0" d="M668.6,210.1c-0.2-0.3-0.4-0.2-0.4,0c-0.1,0.3,0,0.5,0.1,0.7c0.3,0.3,0.8,0.3,1.2,0c0.2-0.2,0.2-0.4,0-0.6C669.2,210.1,668.8,210.4,668.6,210.1z"></path>
<path class="st0" d="M680.3,154.5c0.7,0,3.7-0.2,2.5-0.7c-1.3-0.6-6.2-0.6-6,0.7S679.6,154.5,680.3,154.5z"></path>
<path class="st0" d="M647.7,211.1c0-0.3,0-1.5-0.3-1.8s-0.3,0.1-0.4,0.1s-0.2-0.6-0.3-0.6s0,0.9,0.3,1.5C647.3,211,647.7,211.9,647.7,211.1z"></path>
<path class="st0" d="M675.1,156c0.4,0.3,1.9,1.3,2.1,1.2c0.1-0.1,0.1-0.3-0.1-0.4H677l0,0c-1-0.6-0.1-1.5-0.9-2.1c-0.8-0.3-1.7-0.1-2.3,0.4C673,156,674.6,155.7,675.1,156z"></path>
<path class="st0" d="M698.9,163c0.4,0.1,0.4-0.7-0.3-1.3s-1.9-0.3-1.6,0C697.6,162.2,698.2,162.7,698.9,163z"></path>
<path class="st0" d="M647.4,208.5c0.3-0.8,0.4-1.7,0.4-2.6c0-0.5-0.2-1-0.6-1.3c-0.2,0,0,0.4,0.1,1.2c-0.1,0.7-0.2,1.5-0.4,2.2C647,208.1,647.3,208.8,647.4,208.5z"></path>
<path class="st0" d="M704.9,187.9c-0.2-0.6-1.2-2.8-1.5-2.6c-0.3,0.1,0.4,1.5,0.6,2.1s-0.1,0.3,0,0.6l0,0c0.2,0.9,0.5,1.8,0.9,2.6c0.1,0.4,0.3,2.1,0.6,1.9s0.3-1,0.2-1.5C705.5,189.9,705.3,188.9,704.9,187.9z"></path>
<path class="st0" d="M711.2,162.6c-21.7-21.7-57-21.8-78.7,0l0,0c-21.7,21.7-21.8,56.8-0.1,78.6l0.1,0.1c21.7,21.7,57,21.8,78.7,0
	C733,219.6,733,184.3,711.2,162.6z M725.1,200.7h-8.6c-0.1-6.3-1.6-12.5-4.4-18.1l0.2-0.1c0.6-0.6-2.8-5-3.4-5.4
	c-0.7-0.6-1.3-1.2-1.9-1.9c-1.2-1.2-2.3-2.4-3.2-3.8l6.3-6.3C719.4,174.6,724.8,187.4,725.1,200.7z M701.8,228.4L701.8,228.4
	c-0.3-0.6-0.4-1.3-0.7-1.9c-0.2-0.6-1.3-0.6-1.3-0.3c0,0.6,0,1.2-0.1,1.8v0.2l-3.1-3.1c5.6-6,8.8-13.8,9.1-22h8.5
	c-0.3,10.4-4.4,20.3-11.6,27.8l-0.4-0.4C702.3,229.8,702.1,229.1,701.8,228.4z M694.8,234.3L694.8,234.3c0.5-0.7,1.3-2,1.8-2.8
	c0.4-0.7-1.2-1.8-2.1-2.1c-0.9-0.3-0.9-0.7-0.9-1.5c0.5-0.3,0.9-0.7,1.3-1.2l6,6c-2,1.9-4.1,3.5-6.4,5c-0.2-0.3,0.9-1.3,1.2-1.8
	C696,235.6,694.5,235,694.8,234.3z M699.5,188.6c0.6,0.2,0.3,0.4,0.7,0.6c0.2,0,0.4,0.1,0.6,0.3c0.7,1.6,1.2,3.3,1.6,5
	c-0.2,0.1-0.4,0.3-0.6,0.4c-0.3,0.3-0.2,0.9-0.4,1.3c-0.4,0.7-0.6,1.2-1.8,0.9c-0.7-0.3-0.1-1.2,0-1.9s0.4-0.6,0.4-1
	s-1.5-2.1-2.2-1.5s-0.6,1.2-1.2,1.8c-0.3,0.3-0.6,0.3-1,0s-0.6-0.6-0.4-0.9c0.2-0.3-1-1.6-1.5-2.2c-0.6-0.7-1.4-1.2-2.3-1.2
	c-0.8-1.4-1.7-2.6-2.8-3.8l6-6c2,2,3.6,4.4,5,6.8l0,0c0,0.1-0.1,0.1-0.1,0.2l0,0c-0.2,0.1-0.9-1-0.9-0.2
	C698.6,188.2,698.9,188.5,699.5,188.6z M702.7,198.3c0-0.2,0.1-0.2,0.1-0.3c0.2,0.9,0.3,1.8,0.3,2.8h-6.3v-0.1
	c0.4-0.7,2.1-0.6,1.6-1.3c-0.7-1,0.3-1.2,1.3-1.6c0.6-0.3,1.3,0.2,1.3-0.1c0-0.4,0.3-0.8,0.6-1c0.4-0.2,0.7-0.4,0.9-0.7
	c0,0.3,0.1,0.6,0.1,0.9c-0.3,0.5-0.4,1-0.4,1.6C702.3,198.7,702.3,199.3,702.7,198.3z M689.5,191.4L689.5,191.4l-0.3,0.4
	c-0.1,0.3-0.9-0.3-1-0.1s1,1.6-0.1,1.2c-1.2-0.4-0.4-0.4-0.4-0.9s-1-0.7-0.4-1s0-0.7,0.6-0.9s0.4-0.7-0.3-0.9s-0.6,1.6-1,1.3
	c-0.4-0.1-0.9-0.2-1.3-0.2l2.1-2.1c0.2,0.1,0.5,0.2,0.7,0.1C688.3,189.5,688.8,190.5,689.5,191.4z M687.2,221.1L687.2,221.1
	c0.9,0.1,1.8,0.3,2.8,0.6c0.6,0.3,1,0.9,1.5,0.1c0.9-1.3,1.5-2.8,1.8-4.4c0.3-2.2-0.1-2.9-0.4-2.9c-0.3,0-0.9,0.6-1.5,0.6
	c-0.3,0-0.3,0.6-0.3,1s-0.6,0.9-0.7,0.6c-0.1-0.3-0.4-0.2-0.3,0.1c0.2,0.3-1.2,0.2-1.8-0.1c-0.9-0.4,1-0.4,1.9-1.2
	c0.8-0.6,1.5-1.3,2.2-2.1c0.4-0.7,0.4-1.6,1.2-2.2c0.7-0.6,1.9-0.4,2.1-1.3c0.2-0.9,0.3-0.7,0.7-0.6s4.5-0.2,4.5-1.5
	c0-0.6-0.9-1.3-1.8-1.5c-0.6,0-0.7-1.2-1-1.8s-0.6-1.2-1-1.8h6.2c-0.3,7.5-3.3,14.7-8.3,20.2l-0.1-0.2v-0.6c0.1-1.2-0.7-3.1-1-2.8
	s0,0.3-0.9,1.6c-0.3,0.4-0.7,1.2-1.3,1.2s-0.6-0.3-1.5-0.2c-0.8,0.2-1.6,0.2-2.3,0c-1.4-0.5-2.7-1.1-4-1.9c0.2-0.1,0.6,0.2,0.6-0.3
	C684.3,219.6,686.6,220.9,687.2,221.1z M705.9,200.7c0-1.9-0.3-3.8-0.7-5.7c0.3-0.6,0.4-1.2,0.4-1.9c0-0.3-0.2-0.6-0.5-0.6
	c-0.2,0-0.4,0.1-0.5,0.2c-0.3-1.1-0.7-2.2-1.2-3.2c-0.1-0.6-0.3-1.3-0.4-1.9c0-0.1-0.3-0.3-0.6-0.6c-0.2-0.5-0.5-1-0.7-1.5
	c0.4-0.3,0.6-1,0-0.9c-0.9,0.2-0.3-0.4-0.6-0.7s-0.3,0-0.4,0.2c-1.1-1.8-2.4-3.4-3.8-5V179c-0.3,0-0.3-0.2-0.2-0.2l0,0l2.1-2.1
	c0.5,0.6,1.3,1,2.1,1.2c0.6,0,1.1,0.5,1.2,1.2c0.2,0.7,0.9,1,1.6,1.2c0.7,0.1,1.2,1,1.8,1s2.5,2.6,3.2,3.5c0.4,0.4,1,1.2,1.5,0.6
	c0.4-0.6,0.4-0.4,0.7-0.6c2.3,5,3.5,10.5,3.7,16L705.9,200.7L705.9,200.7z M708.7,163.4l-5.9,5.8c-0.3-0.1-0.6-0.3-0.4-0.6
	c0.3-0.4-0.4-0.4-0.6-1.6c-0.3-1.2-1.1-2.2-2.2-2.8c-0.7-0.4-1.2-1-1.9-1.3s-2.2-1.2-2.9-0.9c-0.5,0.2-1,0.3-1.5,0.3
	c-6.2-3.3-13.1-5.1-20.2-5.3l-0.1-8.5C686.3,149,699.1,154.2,708.7,163.4z M673,159.6c6.3,0.2,12.4,1.7,18,4.5
	c0.2,1,0.6,1.9,1.2,2.6c0.3,0.7,0.7,1.4,1.2,2.1c0.4,0.4,0.1,1.3,0.3,2.1c0,0.3,0.3,0.6,0.4,0.9v1.2c0,0.1,0.6,0.1,1-0.2
	s0.7-0.9,1.3-0.7s1.3,1.3,1.8,2.1l-2.8,2.8c-0.3-0.6-0.6-1.3-0.4-1.3s0.4,0.1,0.6,0.1c0.6,0-0.4-0.4-0.4-0.6c-0.4-0.4-0.4-1-1-1.5
	c-0.6-0.4-1.5-0.2-1.8-0.7c-0.6-1-1.4-1.9-2.3-2.6c-0.2,0,1.2,1.6,0.7,1.9s-2.1-1-2.2-0.7c-0.1,0.3,1.8,1,2.3,1.6
	c0.3,0.3,0.9,1.2,1.5,1.9c-5.6-4.2-12.3-6.6-19.3-6.9L673,159.6L673,159.6z M673,170.4c7.5,0.3,14.7,3.3,20.2,8.3l-6,6
	c-3.9-3.5-8.9-5.6-14.2-5.9V170.4z M685.5,186.5l-0.3,0.3l-0.3-0.1c-0.7-0.3-2.2,1.2-1.9,1.3s0.9-0.6,1.2-0.4h0.1l-2.5,2.6
	c-0.7,0.3-1.5,0.9-1.5,1.3v0.2l-0.9,0.9l-0.4-0.4c-0.7-0.6-1.5-1-2.3-1.3c0.4-0.3,0.7-0.8,0.7-1.3c0-0.9-0.3-0.6-0.7-0.1
	c-0.4,0.4-0.9,0.6-1.2,1c-0.7-0.3-1.5-0.4-2.3-0.4v-8.5h-0.1C677.6,181.6,682,183.4,685.5,186.5z M672,192.2h0.3H672
	c0.1,0.3,0,0.5-0.1,0.7c-0.3,0.3-1.2-0.7-1.3,0.1c-0.3,0.9,0.6,0.4,0.6,0.6c0.4,0.6,1.1,0.9,1.8,1c0.6,0,1.5,0,1.5,0.6
	c0,0.3,0.7,0.3,0.9,0.6c0,0.4,0.4,1.2,0.7,1s0.7,0.2,0.9,0.4s0,0.4-0.2,0.7c-0.4,0.4,0.4,0.3,0.6,1.2c0.2,0.9-0.7,0.3-0.9,0.9
	c-0.3,0.4-0.6,0.7-0.9,1.2c-0.1,0.1,0.2,0.4,0.3,0.3c0.1-0.1,0.4-0.6,0.9-0.6s0.9,1.6,1.3,1.8c0.4,0.2,0.3,0.7,0.4,0.9
	c0.2,0.1-0.7,0-0.6,0.3c0.1,0.3,1,0.4,1,0.9c-0.1,0.5-0.5,0.9-1,0.9c-0.4,0-1.2-1-1.2-0.7s0.3,1.2,0.7,1.2s1.5-0.4,1,0.2
	s-0.3,1.5-0.6,1.5s-0.4,0-0.1,0.4c0.1,0.5,0,0.9-0.3,1.3c-0.3,0.2-0.8,0.1-1-0.1c0-0.2,0.9-0.2,0.9-0.6c0-0.4-0.4-0.6-1.3-0.3
	c-0.4,0.1-0.6-0.2-0.9-0.2s-1.2,1-1.2,1.2v0.7c0,0.5-0.1,1-0.4,1.5c-0.5,0.1-1.1,0.2-1.6,0.1c-2.4-0.1-4.6-0.9-6.4-2.5
	c0.4-0.2,0.8-0.3,1.2-0.3c0.4,0.1,0.6-0.1,0.9-0.3c0.3-0.2,1,0.3,1.5,0c0.4-0.3,1.5-2.2,1.3-2.6c-0.2-0.4,1-1.2,0.9-1.3
	s-0.3,0.1-0.3,0s0.3-0.1,0-0.7c-0.3-0.6-0.7-0.3-1-0.3c-0.4-0.3-1.2-0.4-1.3-0.3c-0.1,0.2-0.6-0.3-0.7-0.2c-0.2,0-0.4,0.2-0.4,0.4
	c-0.2,0.3,0.1,0.6,0.1,0.9c-0.1,0.6-1,1-1,1.5s-0.4,0.2-0.6,0.3s0,0.4-0.3,0.4s-0.7,0.7-1,1.3c-0.4-0.6-0.9-1.3-1.3-1.9
	c0.3-0.2,0.6-0.3,0.7-0.2c0.4,0.3,2.2-2.8,1.9-3.7s-0.7-0.3-1.2-0.2c-0.4,0.1-0.4-0.3-0.3-0.4c0.1-0.2,2.1-0.1,1-0.7
	c-0.4-0.3-1.6-0.3-1.5-0.7s0.7,0,0.9,0c0.7,0.3,1.2-1.2,1.6-1.2c0.7,0,0.4-1.5-0.3-1c-0.7,0.4-1,0.3-1.3,0.7s-1,1-1,0.4
	c0-0.3,1.6-1.2,1.9-1.6c0.3-0.3,0.6-0.7,0.7-1.2c0.2-0.4,2.2-0.7,2.6-1c0.3-0.3,0.5-0.7,0.6-1.2c0-0.4-0.6-0.3-0.7-0.6
	c-0.1-0.3,0.7,0,0.7-0.4s-0.7,0-1-0.3c0-0.1,0-0.1,0.2-0.3C669.8,192.4,670.9,192.2,672,192.2z M664.5,226.5
	c0.2,0.7-0.9,1.2-0.9,2.1c0,0.9,1.2,1.5,1.3,2.3c0.1,0.4,1.2,1.2,2.1,1.8c1.1,0.3,2.2,0.4,3.4,0.3l0.1,0.4
	c-7.5-0.3-14.7-3.2-20.2-8.3l6-6c2.8,2.6,6.2,4.4,10,5.3C665,224.9,664.4,225.8,664.5,226.5z M646.2,218.6l0.5,0.3
	c-0.4-0.8-0.6-1.7-0.6-2.6c0-0.9-0.3-1.8-0.8-2.5c-0.2-0.6-0.3-1.2-0.3-1.8c0-1-0.9-0.7-0.9-1s0.7,0,0.7-0.3
	c-0.3-0.7-0.9-1.3-1.6-1.7c-0.7-0.3-0.4-0.7-0.4-1.2c0.1-0.4,0-0.8-0.3-1.2c-0.1-0.6,0-1.6,0.7-1.6c0.3,0,0.7,0.3,1.2,0
	c0.4-0.3,0.2-1.2,0.2-1.9h4.1c0,0.6,0.2,1.3,0.2,1.9c-0.3,0.2-0.4,0.4-0.3,0.6s0.3,0.3,0.4,0.1c0.7,4.3,2.7,8.2,5.6,11.4l-6,6
	c-0.5-0.5-0.9-1-1.3-1.6v-0.4C647.3,220.1,646.5,219.5,646.2,218.6z M634.4,215.5c-0.8,0.3-1.7,0.4-2.6,0.4h-0.1
	c-1.4-4-2.2-8.3-2.3-12.6l8.6-0.3c0,1.6,0.1,3.1,0.4,4.7c-0.1,0-0.1-0.4-0.6-0.3s-2.1,2.9-2.8,4.1
	C634.4,212.6,635.2,214.8,634.4,215.5z M637.9,200.7h-8.5c0.3-10.4,4.4-20.4,11.6-28l6,6C641.4,184.8,638.2,192.6,637.9,200.7z
	 M667,191L667,191l-0.6,0.2c-0.8,0.4-1.5,0.9-2.2,1.5l-6-6c3.4-3.1,7.8-4.8,12.4-5.1v8.5c-1.1,0.1-2.1,0.4-3.1,0.7
	c0.2-0.4,0.5-0.8,0.9-1.2C667.9,190,667.4,190.4,667,191z M652.2,192.8c0,0.3-1.3,0.7-2.2,1.2c-0.9,0.4-1.2,1.2-2.6,1.2
	c-0.7,0-1,0.6-1.3,1c-0.4,0.6-0.7,1.1-1,1.8c0,0.9-0.2,1.8-0.6,2.6h-4.2c0.3-7.5,3.3-14.7,8.3-20.2l6,6c-1.5,2-2.7,4.1-3.8,6.3
	c-0.2,0-0.2,0.2-0.3,0.2c-0.4,0.4-1.6,0.3-1.5,0.7C649.2,194,652.2,192.6,652.2,192.8z M649,199c0,0.6-0.1,1.2-0.1,1.8h-3.1
	c-0.1-0.5,0-0.9,0.3-1.3c0.4-0.6,1.1-0.9,1.8-0.7C648.2,198.7,648.6,198.8,649,199z M656.3,188.3l5.3,5.3H661c-0.6,0-0.6-0.4-1-0.4
	c-0.9,0.2-1,0.4-1.2,0.3c-0.7-0.6-1.4-1.1-2.2-1.5c-1-0.3-2-0.3-2.9,0.2c-0.1,0-0.1,0.1-0.3,0.1
	C654.4,190.9,655.5,189.6,656.3,188.3z M656.3,184.9l-5.8-6c5.5-5.1,12.7-8,20.2-8.3v8.5C665.3,179.3,660.3,181.4,656.3,184.9z
	 M648.7,177.2L648.7,177.2l-6-6c7.6-7.2,17.5-11.3,28-11.6v8.5C662.5,168.4,654.7,171.6,648.7,177.2z M641,208.7
	c-0.4-1.8-0.6-3.7-0.7-5.6h3.5c-0.3,0.4-1,0.9-1.2,1.3s-1,1.9-0.4,2.5C643.5,208.4,641.8,209,641,208.7z M641.7,230.3L641,231l-1-1
	C640.5,229.8,641.2,229.9,641.7,230.3z M651.6,205.9l0.3,0.4c0.3,0.3,0.6,0.6,0.9,0.4c0.4-0.1,0.8-0.1,1.2,0c0.4,0.2,0.7,0.4,1,0.7
	c0.3,0.4,0.9,0.1,1.3,0.4s0.9,0.6,0.3,0.9s0.6,0.9,0.7,0.9c0.2,0,0.3-0.3,0.3-0.7c0-0.2,0.3-0.7,0.7-0.6c0.4,0.1,1.8,1.8,2.2,1.2
	s0.2-1.3,0.3-1.6c0-0.2,0.1-0.3,0.3-0.3c0.4,0.7,0.8,1.3,1.3,1.9l-6,6C653.9,212.9,652.3,209.5,651.6,205.9z M662.4,204.9v0.3
	c0-0.3-0.1-0.4-0.3-0.7c-0.1-0.2-0.3-0.3-0.4-0.3H661l-0.3,0.1h-2.1c-0.3,0-0.4,0-0.4-0.1c-0.1-0.6,0.7-0.1,1.3-1.9
	c0.1-0.1,0.1-0.4,0.3-0.6l0.2-0.3l0.1-0.2l0.1-0.1c0.2-0.2,0.6-0.3,0.9-0.3h0.3l0.3,0.3l0.4,0.9c0.2,0.2,0.3,0.2,0.3,0.3
	c0.2,0.1,0.4,0.3,0.6,0.4l0.1,0.2v0.1c0.1,0.1,0.1,0.1,0.3,0.1h0.6c0.3-0.1,0.3,0,0.4,0v0.2c0,0.1,0,0.1-0.2,0.3
	c0,0.1-0.1,0.1-0.1,0.3c-0.2,0.2-0.3,0.3-0.4,0.3c-0.2,0-0.5-0.1-0.7-0.1s-0.3,0-0.3,0.1v0.7H662.4z M670.7,148.7v8.5
	c-11,0.3-21.6,4.7-29.6,12.3l-6-6C644.7,154.2,657.4,149,670.7,148.7z M633.2,165.2L633.2,165.2l6,6c-7.6,8-12,18.5-12.3,29.6h-8.5
	C618.8,187.5,624.1,174.9,633.2,165.2z M618.6,203.1h8.5c0.1,4.3,0.9,8.6,2.2,12.7c-0.5-0.1-0.9-0.3-1.3-0.6c-0.6-0.3-1,0.1-1.2,0.1
	c-0.6,0-1.3-0.4-1.3,0s0.6,0.2,0.6,0.4s-1.5,0.3-1.6-0.3s-0.4-1.2-0.6-0.4c-0.1,0.7-0.7,0.6-1,0.7c-0.2,0.2-0.3,0.5-0.3,0.7
	c0,0.3-0.7,0.2-0.7,0.6s0.4,0.6,0.6,1c0.2,0.4,0.6,0.7,0.3,0.9s-0.2-0.1-0.4,0s1.3,4.5,1.6,4.4c0.3-0.2-0.4-1.5-0.4-2.1
	c-0.1-0.4,0.2-0.9,0.6-1c0.4-0.3,1.6,1.8,2.1,1.5c0.4-0.3-0.1-0.6,0.3-0.7c0.4-0.2,1.8,1.9,2.2,1.3c0.3-0.4,0.6,0.3,0.6,0.4
	c0.4,0.7,1.2,0.7,1.6,1.6c0.4,0.9,1.5,2.5,2.2,2.5s0.3-0.7,0.6-0.7s0.6,1,1,1.6c0.3,0.5,0.8,0.8,1.3,0.9c1,1.3,2.2,2.6,3.4,3.9l-6,6
	C623.9,229.1,618.7,216.4,618.6,203.1z M634.9,240.4l6-6c8,7.6,18.5,12,29.6,12.3v8.5C657.2,254.9,644.5,249.7,634.9,240.4z
	 M670.5,244.4c-10.4-0.3-20.3-4.4-27.9-11.6l1-1c0.2,0.2,0.5,0.3,0.7,0.4c0.6,0.3,1.4,0.4,2.1,0.3c0.6-0.1,1.8-1.2,2.5-1.2
	s1.9,0.3,2.6-0.1c0.7-0.4-0.4-1.9-0.9-2.6c-0.1-0.2-0.1-0.3-0.3-0.4c5.7,4.8,13,7.6,20.5,7.8L670.5,244.4z M670.2,221.7
	c-0.4-0.3-0.7,0.3-1.3,0.6c-4-0.6-7.8-2.3-10.8-5l6-6c1.8,1.5,4.1,2.4,6.4,2.6c0,0.3,0.3,0.6,0.3,1.2c0,0.6-0.4,0.9-0.3,1.2
	c0.1,0.3,1.5,0,1.6-0.4s-0.4-0.7-0.6-1.2c-0.2-0.3-0.2-0.4-0.3-0.7h0.4c0.4,0,0.9,0,1.3-0.2c0.2,0,0.3-0.1,0.3-0.3
	c0-0.1,0.2-0.3,0.2-0.4c0-0.2,0.1-0.1,0.1-0.3l0.2,0.1c0.1,0.3,0.4,1.2,0.7,1c0.3-0.1,0.4-1.5,0.3-1.8c-0.3-0.4-0.3-0.9,0-1.3
	c0-0.2,0.2-1,0.4-0.9s0,0.9,0,1.2c0,0.4,0.3,1,0.7,0.7c0.3-0.1,0.6-0.6,0.9-0.4s-0.7,0.4-0.9,0.7s0.4,0.4,0.3,0.6
	c-0.1,0.2-0.3,0-0.4,0.1c-0.1,0.1,0.3,1,0,1.2c-0.3,0.1-1.3,0.4-1.6,0.6c-0.3,0.2-0.6-0.2-0.4-0.3s0-0.7-0.3-0.7s-0.3,0.1-0.3,0.4
	s0.3,0.7,0.3,0.9s-0.4,0.3-0.7,0.4c-0.3,0.5-0.7,0.9-1.2,1.2c-0.4,0.3-1.3,0.3-1.3,0.6s0.4,0.3,0.6,0.4c0.3,0.4,0.4,1-0.1,1.3
	c-0.6,0.3-1.3-0.4-1.6-0.3c-0.3,0.2-0.4,0.9-0.6,1.8c-0.1,0.9,1.6,1.2,2.5,0.7c0.6-0.3,0.4-1.2,1-1.5s0.4-0.9,1-0.7s0.4-0.4,1-0.4
	s0.6,0.4,1.3,0.6c1.2,0.3,1.2,1.2,1.3,0.7s0.3-0.7-0.6-1c-0.9-0.3-1.3-1.3-0.6-1c0.9,0.4,1.6,0.4,1.8,0.9s1,0.3,1.2,0.7
	c0.1,0.7,0.7,0,0.3-0.4s-0.3-0.6,0-0.9c0.3-0.3,0.4,0.2,0.9-0.4c0.4-0.6-0.2-0.4-0.3-0.7s0-1.9,0.6-1.6c0.6,0.3,1.2-0.1,0.9-0.3
	s0.1-1,0.3-1s0,0.6,0.1,0.7s1.6-0.4,1.8,0.3s-1,1.2-1.3,1.2c-0.6,0-1,0.6-1.5,1.2s-0.9,0.7-0.6,1.3c0.3,0.6,0.9,0.4,1.5,0.1
	c0.6-0.3,1-0.7,1.3-0.9c0.6-0.3,1,1.5,0.7,1.8s-0.9,0.4-1.2,0.7c-0.8,0.5-1.8,0.8-2.8,0.9c-0.6,0.1-0.6,0.3-0.7,0.9
	s-2.8,0.1-3.4,0.1s0.4-1.3-0.4-1.2l-2.6,0.4C671.8,221.6,671,222.3,670.2,221.7z M678,235.3c0.7,0.3,1.4,0.8,1.9,1.5
	c0.4,0.7,0.6,1,0.3,1.8c-0.7,1.3-0.4,2.2,1,2.6c0.9,0.3,1.2,1.2,1.8,1.8c-3.3,0.9-6.6,1.3-10,1.5V236
	C674.6,235.8,676.4,235.6,678,235.3z M673,233.6v-1c1.9-0.3,1.5,0.9,2.8,0.4c0.4-0.1,0.9,0,1.2,0.3
	C675.6,233.3,674.3,233.4,673,233.6z M673,255.3v-8.6c4.4-0.1,8.8-0.9,13-2.3c0.1,0.1,0.3,0.2,0.4,0.1c0.6,0,1.1-0.2,1.6-0.6
	c1.4-0.6,2.7-1.3,3.9-2.2c3.9-2,7.4-4.5,10.5-7.5l6,6C699,249.6,686.3,255,673,255.3z M710.2,238.8L710.2,238.8l-6-6
	c7.6-8,12-18.5,12.3-29.6h8.6C724.9,216.6,719.5,229.3,710.2,238.8z"></path>
</g>
</svg><style>@media (prefers-color-scheme: light) { :root { filter: none; } }
@media (prefers-color-scheme: dark) { :root { filter: none; } }
</style></svg>